<?xml version="1.0" encoding="UTF-8" standalone="no"?>
<!-- Copyright 2017 mathsisfun.com -->

<svg
   xmlns:dc="http://purl.org/dc/elements/1.1/"
   xmlns:cc="http://creativecommons.org/ns#"
   xmlns:rdf="http://www.w3.org/1999/02/22-rdf-syntax-ns#"
   xmlns:svg="http://www.w3.org/2000/svg"
   xmlns="http://www.w3.org/2000/svg"
   xmlns:xlink="http://www.w3.org/1999/xlink"
   xmlns:sodipodi="http://sodipodi.sourceforge.net/DTD/sodipodi-0.dtd"
   xmlns:inkscape="http://www.inkscape.org/namespaces/inkscape"
   width="299.8"
   height="144.2"
   version="1.1"
   style="font-size:12px;font-family:Verdana;stroke-width:0.5"
   id="svg168"
   sodipodi:docname="normal-distrubution-1sd.svg"
   inkscape:version="0.92.3 (2405546, 2018-03-11)">
  <metadata
     id="metadata172">
    <rdf:RDF>
      <cc:Work
         rdf:about="">
        <dc:format>image/svg+xml</dc:format>
        <dc:type
           rdf:resource="http://purl.org/dc/dcmitype/StillImage" />
        <dc:title></dc:title>
      </cc:Work>
    </rdf:RDF>
  </metadata>
  <sodipodi:namedview
     pagecolor="#ffffff"
     bordercolor="#666666"
     borderopacity="1"
     objecttolerance="10"
     gridtolerance="10"
     guidetolerance="10"
     inkscape:pageopacity="0"
     inkscape:pageshadow="2"
     inkscape:window-width="640"
     inkscape:window-height="480"
     id="namedview170"
     showgrid="false"
     inkscape:current-layer="svg168" />
  <defs
     id="defs2" />
  <path
     style="fill:#ffffff"
     d="m 111.8,55.3 c -3.4,6.4 -6.8,12.7 -10.3,19 -3.4,6.1 -7.1,12 -11.1,17.7 -3.9,5.5 -8.3,11 -13.3,15.4 -0.6,0.5 -1.2,1.1 -1.8,1.6 v 15.8 h 37.2 V 54 c -0.2,0.5 -0.5,0.9 -0.7,1.4 z"
     id="path4"
     inkscape:connector-curvature="0" />
  <path
     style="fill:#ffffff"
     d="m 59.9,118.5 c -6.4,2.6 -13,4 -19.8,4.9 -0.7,0 -1.5,0.2 -2.2,0.3 v 1.3 h 37.3 v -15.8 c -4.7,3.9 -9.7,7.2 -15.3,9.5 z"
     id="path6"
     inkscape:connector-curvature="0" />
  <path
     style="fill:#0084c8"
     d="m 149.5,8 c -3.3,0.3 -6.5,1.5 -9.2,3.7 -2.7,2.3 -5.1,4.7 -7.3,7.5 -4.2,5.4 -7.9,11.4 -11.2,17.4 -3.2,5.7 -6.3,11.5 -9.3,17.3 v 70.9 h 37.3 V 8 c -0.1,0 -0.2,0 -0.3,0 z"
     id="path8"
     inkscape:connector-curvature="0" />
  <path
     style="fill:#0084c8"
     d="m 177.6,36.2 c -3.5,-6.1 -7.1,-12.2 -11.5,-17.7 -2.2,-2.6 -4.5,-5.3 -7.3,-7.2 -2.6,-1.8 -5.7,-3.5 -9,-3.4 v 116.9 h 37.3 V 53.9 C 184,48 180.9,42 177.5,36.1 Z"
     id="path10"
     inkscape:connector-curvature="0" />
  <path
     style="fill:#ffffff"
     d="m 258.3,123.2 c -6.5,-0.8 -13.1,-2.3 -19.1,-4.9 -5.3,-2.4 -10.3,-5.4 -14.7,-9.2 v 15.8 h 37.3 v -1.3 c -1.2,-0.1 -2.4,-0.2 -3.5,-0.4 z"
     id="path12"
     inkscape:connector-curvature="0" />
  <path
     style="fill:#ffffff"
     d="m 222.2,107 c -5.1,-4.8 -9.6,-10.3 -13.7,-16.1 -4,-5.7 -7.6,-11.7 -11,-17.7 -3.5,-6.2 -6.9,-12.6 -10.2,-18.9 0,0 -0.1,-0.2 -0.1,-0.2 V 125 h 37.3 v -15.8 c -0.8,-0.7 -1.6,-1.3 -2.3,-2.1 z"
     id="path14"
     inkscape:connector-curvature="0" />
  <path
     style="fill:none;stroke:#000000;stroke-width:0.38;stroke-linecap:round;stroke-linejoin:round"
     d="m 0.6,124.8 c 6.7,0 13.5,0 20.2,-0.3 6.4,-0.2 12.9,-0.4 19.3,-1.3 6.8,-0.9 13.4,-2.3 19.8,-4.9 6.4,-2.6 12,-6.5 17.2,-11 5,-4.4 9.5,-9.9 13.3,-15.4 4,-5.7 7.7,-11.6 11.1,-17.7 3.6,-6.3 6.9,-12.6 10.3,-19 3.3,-6.3 6.6,-12.5 10,-18.7 3.4,-6 7,-12 11.2,-17.4 2.2,-2.8 4.6,-5.3 7.3,-7.5 2.6,-2.2 5.8,-3.4 9.2,-3.7 3.4,-0.3 6.6,1.5 9.3,3.3 2.8,1.9 5.1,4.6 7.3,7.2 4.4,5.4 8,11.6 11.5,17.7 3.4,5.9 6.5,12 9.7,18 3.3,6.3 6.7,12.7 10.2,18.9 3.4,6.1 7,12 11,17.7 4.1,5.8 8.6,11.3 13.7,16.1 5,4.8 10.8,8.5 17,11.2 6,2.7 12.6,4.1 19.1,4.9 6.6,0.8 13.3,1.2 20,1.4 6.6,0.2 13.2,0.2 19.8,0.3 0.3,0 0.7,0 1,0"
     id="path16"
     inkscape:connector-curvature="0" />
  <g
     transform="matrix(0.5,0,0,0.5,-61.1398,-4.064)"
     id="g18" />
  <text
     x="126.4"
     y="54.3"
     style="color:#000000;font-size:16px;overflow:visible;fill:#a40000;stroke-width:0.5px"
     id="text48">1</text>
  <text
     x="108.5"
     y="37"
     style="color:#000000;font-size:15.2px;overflow:visible;fill:#a40000;stroke-width:0.5px"
     id="text50">Standard Deviations</text>
  <g
     transform="matrix(0.467572,0,0,0.536398,-81.7562,-3.50786)"
     id="g56">
    <path
       style="color:#000000;overflow:visible;fill:#a40000;stroke-width:6.65"
       d="m 493.3,133.6 c 0,-4.4 -0.8,-9.6 -4.7,-12.3 -4.2,-3.1 -9.7,-3.4 -14.6,-2 -5,1.4 -10.8,2.3 -15.4,-0.8 -1.6,-0.8 -2.4,-3.6 -3.9,-1.3 -0.7,0.6 -1.4,1.2 -2.2,1.8 3.7,4.9 10.4,6.6 16.3,5.7 4.8,-0.5 9.8,-3.2 14.6,-1.1 3.2,1 4.9,4.3 5.2,7.5 0.7,1.3 -0.8,5.4 1.5,3.9 1,-0.4 2.1,-0.9 3.2,-1.3 z"
       id="path52"
       inkscape:connector-curvature="0" />
    <path
       style="color:#000000;overflow:visible;fill:#a40000;stroke-width:6.65"
       d="m 416.4,133.6 c 0.1,-4.4 0.8,-9.6 4.7,-12.3 4.2,-3.1 9.7,-3.4 14.6,-2 5,1.4 10.8,2.3 15.4,-0.8 1.6,-0.8 2.4,-3.6 3.9,-1.3 0.7,0.6 1.4,1.2 2.2,1.8 -3.7,4.9 -10.4,6.6 -16.3,5.7 -4.8,-0.5 -9.8,-3.2 -14.6,-1.1 -3.2,1 -4.9,4.3 -5.2,7.5 -0.7,1.3 0.8,5.4 -1.5,3.9 -1.1,-0.4 -2.1,-0.9 -3.2,-1.3 z"
       id="path54"
       inkscape:connector-curvature="0" />
  </g>
  <text
     x="164.3"
     y="54.3"
     style="color:#000000;font-size:16px;overflow:visible;fill:#a40000;stroke-width:0.5px"
     id="text58">1</text>
  <g
     transform="translate(-144.68,-506.878)"
     id="g62" />
  <use
     transform="translate(37.901,-2.3)"
     xlink:href="#aa1"
     id="use64"
     x="0"
     y="0"
     width="100%"
     height="100%" />
  <g
     transform="matrix(0.467572,0,0,0.536398,-43.7562,-3.50786)"
     id="g70">
    <path
       style="color:#000000;overflow:visible;fill:#a40000;stroke-width:6.65"
       d="m 493.3,133.6 c 0,-4.4 -0.8,-9.6 -4.7,-12.3 -4.2,-3.1 -9.7,-3.4 -14.6,-2 -5,1.4 -10.8,2.3 -15.4,-0.8 -1.6,-0.8 -2.4,-3.6 -3.9,-1.3 -0.7,0.6 -1.4,1.2 -2.2,1.8 3.7,4.9 10.4,6.6 16.3,5.7 4.8,-0.5 9.8,-3.2 14.6,-1.1 3.2,1 4.9,4.3 5.2,7.5 0.7,1.3 -0.8,5.4 1.5,3.9 1,-0.4 2.1,-0.9 3.2,-1.3 z"
       id="path66"
       inkscape:connector-curvature="0" />
    <path
       style="color:#000000;overflow:visible;fill:#a40000;stroke-width:6.65"
       d="m 416.4,133.6 c 0.1,-4.4 0.8,-9.6 4.7,-12.3 4.2,-3.1 9.7,-3.4 14.6,-2 5,1.4 10.8,2.3 15.4,-0.8 1.6,-0.8 2.4,-3.6 3.9,-1.3 0.7,0.6 1.4,1.2 2.2,1.8 -3.7,4.9 -10.4,6.6 -16.3,5.7 -4.8,-0.5 -9.8,-3.2 -14.6,-1.1 -3.2,1 -4.9,4.3 -5.2,7.5 -0.7,1.3 0.8,5.4 -1.5,3.9 -1.1,-0.4 -2.1,-0.9 -3.2,-1.3 z"
       id="path68"
       inkscape:connector-curvature="0" />
  </g>
  <path
     style="fill:none;stroke:#000000;stroke-width:0.74"
     d="M 0,125.2 H 299.8"
     id="path72"
     inkscape:connector-curvature="0" />
  <path
     style="fill:none;stroke:#000000;stroke-width:0.51"
     d="M 149.5,144.2 V 0"
     id="path78"
     inkscape:connector-curvature="0" />
  <text
     x="123"
     y="100.2"
     style="font-size:24px;fill:#ffffff"
     id="text84">68%</text>
  <g
     transform="translate(0.3,-337.53)"
     id="g166">
    <text
       x="64.7"
       y="479.9"
       id="text142">−2</text>
    <text
       x="103.3"
       y="479.9"
       id="text144">−1</text>
    <text
       x="178.2"
       y="479.9"
       id="text146">+1</text>
    <text
       x="26.9"
       y="479.9"
       id="text148">−3</text>
    <text
       x="253.3"
       y="479.9"
       id="text150">+3</text>
    <text
       x="216.1"
       y="479.9"
       id="text152">+2</text>
    <path
       style="fill:none;stroke:#000000;stroke-width:0.83px"
       d="m 37.6,463.3 v 5.9"
       id="path154"
       inkscape:connector-curvature="0" />
    <path
       style="fill:none;stroke:#000000;stroke-width:0.83px"
       d="m 74.9,463.3 v 5.9"
       id="path156"
       inkscape:connector-curvature="0" />
    <path
       style="fill:none;stroke:#000000;stroke-width:0.83px"
       d="m 112.2,463 v 5.9"
       id="path158"
       inkscape:connector-curvature="0" />
    <path
       style="fill:none;stroke:#000000;stroke-width:0.83px"
       d="m 186.9,463 v 5.9"
       id="path160"
       inkscape:connector-curvature="0" />
    <path
       style="fill:none;stroke:#000000;stroke-width:0.83px"
       d="m 224.2,463.2 v 5.9"
       id="path162"
       inkscape:connector-curvature="0" />
    <path
       style="fill:none;stroke:#000000;stroke-width:0.83px"
       d="m 261.5,463.2 v 5.9"
       id="path164"
       inkscape:connector-curvature="0" />
  </g>
</svg>
